<svg id="visual" viewBox="0 0 960 540" width="960" height="540" xmlns="http://www.w3.org/2000/svg" xmlns:xlink="http://www.w3.org/1999/xlink" version="1.1"><rect x="0" y="0" width="960" height="540" fill="#ffffff"></rect><path d="M0 121L22.8 123.8C45.7 126.7 91.3 132.3 137 128.3C182.7 124.3 228.3 110.7 274 109C319.7 107.3 365.3 117.7 411.2 128.8C457 140 503 152 548.8 147.7C594.7 143.3 640.3 122.7 686 125C731.7 127.3 777.3 152.7 823 154C868.7 155.3 914.3 132.7 937.2 121.3L960 110L960 0L937.2 0C914.3 0 868.7 0 823 0C777.3 0 731.7 0 686 0C640.3 0 594.7 0 548.8 0C503 0 457 0 411.2 0C365.3 0 319.7 0 274 0C228.3 0 182.7 0 137 0C91.3 0 45.7 0 22.8 0L0 0Z" fill="#0066FF" stroke-linecap="round" stroke-linejoin="miter"></path></svg>